HIERARCHY
ROOT Hips
{
	OFFSET -0.001795 -0.223333 0.028219
	CHANNELS 6 Xposition Yposition Zposition Zrotation Yrotation Xrotation 
	JOINT LeftUpLeg
	{
		OFFSET 0.069520 -0.091406 -0.006815
		CHANNELS 3 Zrotation Yrotation Xrotation
		JOINT LeftLeg
		{
			OFFSET 0.034277 -0.375199 -0.004496
			CHANNELS 3 Zrotation Yrotation Xrotation
			JOINT LeftFoot
			{
				OFFSET -0.013596 -0.397961 -0.043693
				CHANNELS 3 Zrotation Yrotation Xrotation
				JOINT LeftToe
				{
					OFFSET 0.026358 -0.055791 0.119288
					CHANNELS 3 Zrotation Yrotation Xrotation
					End Site
					{
						OFFSET 0.000000 0.000000 0.000000
					}
				}
			}
		}
	}
	JOINT RightUpLeg
	{
		OFFSET -0.067670 -0.090522 -0.004320
		CHANNELS 3 Zrotation Yrotation Xrotation
		JOINT RightLeg
		{
			OFFSET -0.038290 -0.382569 -0.008850
			CHANNELS 3 Zrotation Yrotation Xrotation
			JOINT RightFoot
			{
				OFFSET 0.015774 -0.398415 -0.042312
				CHANNELS 3 Zrotation Yrotation Xrotation
				JOINT RightToe
				{
					OFFSET -0.025372 -0.048144 0.123348
					CHANNELS 3 Zrotation Yrotation Xrotation
					End Site
					{
						OFFSET 0.000000 0.000000 0.000000
					}
				}
			}
		}
	}
	JOINT Spine
	{
		OFFSET -0.002533 0.108963 -0.026696
		CHANNELS 3 Zrotation Yrotation Xrotation
		JOINT Spine1
		{
			OFFSET 0.005487 0.135180 0.001092
			CHANNELS 3 Zrotation Yrotation Xrotation
			JOINT Spine2
			{
				OFFSET 0.001457 0.052922 0.025425
				CHANNELS 3 Zrotation Yrotation Xrotation
				JOINT Neck
				{
					OFFSET -0.002778 0.213870 -0.042857
					CHANNELS 3 Zrotation Yrotation Xrotation
					JOINT Head
					{
						OFFSET 0.005152 0.064970 0.051349
						CHANNELS 3 Zrotation Yrotation Xrotation
						End Site
						{
							OFFSET 0.000000 0.000000 0.000000
						}
					}
				}
				JOINT LeftShoulder
				{
					OFFSET 0.078845 0.121749 -0.034090
					CHANNELS 3 Zrotation Yrotation Xrotation
					JOINT LeftArm
					{
						OFFSET 0.090977 0.030469 -0.008868
						CHANNELS 3 Zrotation Yrotation Xrotation
						JOINT LeftForeArm
						{
							OFFSET 0.259612 -0.012772 -0.027456
							CHANNELS 3 Zrotation Yrotation Xrotation
							JOINT LeftHand
							{
								OFFSET 0.249234 0.008986 -0.001171
								CHANNELS 3 Zrotation Yrotation Xrotation
								End Site
								{
									OFFSET 0.000000 0.000000 0.000000
								}
							}
						}
					}
				}
				JOINT RightShoulder
				{
					OFFSET -0.081759 0.118833 -0.038615
					CHANNELS 3 Zrotation Yrotation Xrotation
					JOINT RightArm
					{
						OFFSET -0.096012 0.032551 -0.009143
						CHANNELS 3 Zrotation Yrotation Xrotation
						JOINT RightForeArm
						{
							OFFSET -0.253742 -0.013329 -0.021401
							CHANNELS 3 Zrotation Yrotation Xrotation
							JOINT RightHand
							{
								OFFSET -0.255298 0.007772 -0.005559
								CHANNELS 3 Zrotation Yrotation Xrotation
								End Site
								{
									OFFSET 0.000000 0.000000 0.000000
								}
							}
						}
					}
				}
			}
		}
	}
}
MOTION
Frames: 15
Frame Time: 0.050000
0.000000 0.944548 0.000000 -0.841025 -1.111673 3.696504 5.365076 -0.181498 -1.802802 1.908636 -0.341499 2.617581 2.565580 8.593216 11.655085 0.000000 0.000000 0.000000 -3.209281 0.374500 -3.672175 -4.625953 0.210081 -3.320310 0.749482 -5.720863 18.038726 0.000000 0.000000 0.000000 4.968020 0.106505 -2.459845 -1.841252 0.879101 -1.154836 -3.952581 3.627736 1.495424 7.358520 -4.058413 -9.113345 0.000000 0.000000 0.000000 -21.287250 -5.130953 -0.473125 -49.661043 -3.907995 -3.721580 -12.609982 -18.728552 2.597684 0.000000 0.000000 0.000000 20.236694 -2.763162 -2.523282 56.989962 2.952562 -3.926161 11.356408 20.671368 2.675754 0.000000 0.000000 0.000000 
0.000503 0.943556 0.001832 -0.932247 -1.867006 4.417236 5.073363 -0.168557 -1.512638 2.355597 -0.328098 1.238538 2.989925 9.202421 11.667113 0.000000 0.000000 0.000000 -3.245844 0.439534 -4.440617 -4.538809 0.190487 -3.403042 1.044757 -5.274263 17.763550 0.000000 0.000000 0.000000 5.773881 0.140300 -2.926226 -2.563946 1.209572 -1.075108 -4.615138 4.479709 0.661318 8.343369 -4.595086 -9.488186 0.000000 0.000000 0.000000 -22.151587 -5.188222 -0.759701 -48.545248 -3.913190 -3.465018 -12.786474 -18.413441 2.554477 0.000000 0.000000 0.000000 20.111795 -3.425475 -2.753624 58.108055 2.031187 -4.343501 11.819658 20.491987 2.745193 0.000000 0.000000 0.000000 
0.000788 0.943284 0.003067 -0.601900 -1.444469 4.407004 4.717445 -0.187601 -1.853387 2.405745 -0.364339 1.819431 2.810478 8.918341 11.499969 0.000000 0.000000 0.000000 -3.258593 0.433407 -4.391202 -5.174056 0.258660 -3.180761 0.770372 -5.603988 17.568240 0.000000 0.000000 0.000000 5.334817 0.128766 -2.834108 -2.049324 0.972885 -2.161080 -5.237816 4.436114 1.106927 8.091522 -4.568286 -8.752803 0.000000 0.000000 0.000000 -21.544091 -5.712048 -0.465136 -48.833322 -3.397436 -3.730773 -12.915521 -17.655272 2.463207 0.000000 0.000000 0.000000 21.088287 -2.367008 -2.135014 57.367606 1.639729 -4.579372 11.435107 20.916272 2.754879 0.000000 0.000000 0.000000 
0.000991 0.943406 0.004119 -0.564705 -1.196243 4.849598 4.964841 -0.212697 -2.200039 1.936204 -0.293135 1.598587 2.674416 8.729783 11.544818 0.000000 0.000000 0.000000 -3.242299 0.489023 -5.129173 -5.285391 0.325467 -2.506290 0.583113 -5.853352 17.497161 0.000000 0.000000 0.000000 5.443806 0.129158 -2.938497 -2.346164 1.106965 -1.866724 -5.070825 3.961146 -0.118762 8.439912 -4.962461 -7.896629 0.000000 0.000000 0.000000 -21.680916 -5.304247 -0.656852 -48.746586 -3.381333 -3.630291 -12.744636 -16.964831 2.342243 0.000000 0.000000 0.000000 20.516988 -2.414549 -2.249222 57.386172 1.114213 -4.664274 12.556504 20.760934 2.895871 0.000000 0.000000 0.000000 
0.001114 0.943812 0.004943 -0.399257 -0.922584 4.787087 4.630529 -0.220776 -2.335550 2.247106 -0.348690 1.934178 2.531330 8.543509 11.623286 0.000000 0.000000 0.000000 -3.363195 0.470130 -4.905722 -5.377734 0.328074 -2.590339 0.464160 -6.039931 17.612736 0.000000 0.000000 0.000000 5.277680 0.131902 -2.971411 -2.244227 1.062071 -1.611775 -5.241143 3.838414 -0.305814 8.092120 -4.763548 -7.629243 0.000000 0.000000 0.000000 -21.883698 -5.564235 -0.567455 -48.176087 -3.445380 -3.521645 -13.376637 -16.635269 2.382909 0.000000 0.000000 0.000000 20.568709 -2.350167 -2.199540 57.162991 1.024520 -4.678860 13.028586 21.104208 3.036923 0.000000 0.000000 0.000000 
0.001239 0.944275 0.005638 -0.345332 -0.832896 4.953665 4.621741 -0.229421 -2.454891 2.160963 -0.333368 1.856488 2.456463 8.466940 11.783814 0.000000 0.000000 0.000000 -3.297182 0.490066 -5.167790 -5.605515 0.369578 -2.333131 0.418274 -6.132330 17.717113 0.000000 0.000000 0.000000 5.267163 0.127665 -2.963079 -2.165554 1.025909 -1.661374 -5.351635 3.797153 -0.557111 8.278672 -4.929617 -7.408823 0.000000 0.000000 0.000000 -22.120046 -5.709174 -0.536627 -47.733627 -3.195313 -3.541851 -13.360485 -16.553559 2.367808 0.000000 0.000000 0.000000 20.484435 -2.020335 -2.002866 57.122564 1.275426 -4.532067 13.118019 20.806963 3.000237 0.000000 0.000000 0.000000 
0.001374 0.944539 0.006180 -0.252741 -0.778436 4.952844 4.469861 -0.230564 -2.467828 2.241633 -0.346295 1.911809 2.412441 8.421940 11.871944 0.000000 0.000000 0.000000 -3.359717 0.478623 -5.017591 -5.684599 0.359910 -2.518680 0.411259 -6.164349 17.821893 0.000000 0.000000 0.000000 5.178630 0.116963 -2.845406 -2.249434 1.064127 -1.388921 -5.340253 3.508033 -0.731032 8.292610 -4.868273 -7.774910 0.000000 0.000000 0.000000 -22.289763 -5.526935 -0.586696 -47.375540 -3.216843 -3.501363 -13.712484 -16.775020 2.456911 0.000000 0.000000 0.000000 20.378416 -1.660548 -1.863776 57.044489 1.377649 -4.450720 13.551658 21.278594 3.141443 0.000000 0.000000 0.000000 
0.001520 0.944710 0.006625 -0.267092 -0.763146 5.058346 4.320431 -0.240085 -2.624823 2.512446 -0.386649 2.027927 2.418604 8.445038 11.920848 0.000000 0.000000 0.000000 -3.332039 0.481444 -5.042934 -5.721541 0.353339 -2.623172 0.418529 -6.176847 17.918916 0.000000 0.000000 0.000000 5.179320 0.103518 -2.713504 -2.230138 1.054857 -1.380055 -5.466196 3.446884 -0.856559 8.381873 -4.992295 -7.456079 0.000000 0.000000 0.000000 -22.442945 -5.577496 -0.576758 -46.951654 -3.183066 -3.458155 -14.034754 -16.999801 2.536620 0.000000 0.000000 0.000000 20.375721 -1.567542 -1.818525 56.896983 1.769441 -4.243135 14.002785 21.174658 3.201137 0.000000 0.000000 0.000000 
0.001617 0.944882 0.007001 -0.286633 -0.840901 5.180866 4.307203 -0.240471 -2.618323 2.540757 -0.380287 1.848318 2.445726 8.500482 12.012147 0.000000 0.000000 0.000000 -3.383483 0.486235 -5.094101 -5.611436 0.331546 -2.758152 0.473005 -6.124204 18.007843 0.000000 0.000000 0.000000 5.225754 0.097079 -2.662847 -2.244776 1.060899 -1.353604 -5.423594 3.356156 -0.929092 8.421930 -5.038939 -7.380105 0.000000 0.000000 0.000000 -22.476838 -5.725622 -0.454566 -46.764672 -3.300639 -3.400905 -14.456628 -17.050292 2.611053 0.000000 0.000000 0.000000 20.268500 -1.338523 -1.721516 56.430987 2.043054 -4.070804 14.702961 21.427405 3.362368 0.000000 0.000000 0.000000 
0.001627 0.945096 0.007350 -0.287370 -1.034260 5.379405 4.234791 -0.247389 -2.736182 2.614594 -0.385877 1.775059 2.533599 8.652513 12.153788 0.000000 0.000000 0.000000 -3.405346 0.494848 -5.178565 -5.596087 0.304084 -3.029290 0.592575 -5.994971 18.133183 0.000000 0.000000 0.000000 5.334061 0.104523 -2.778570 -2.321412 1.095066 -1.310436 -5.543609 3.339314 -0.926269 8.396072 -5.021051 -7.390443 0.000000 0.000000 0.000000 -22.390349 -5.810239 -0.369809 -46.401953 -3.433542 -3.325352 -15.065625 -17.253429 2.735091 0.000000 0.000000 0.000000 20.385710 -1.114811 -1.626299 55.952989 2.362789 -3.893090 15.182450 21.500255 3.456992 0.000000 0.000000 0.000000 
0.001573 0.945280 0.007676 -0.261262 -1.172563 5.533583 4.243709 -0.247972 -2.737580 2.518125 -0.362160 1.559531 2.578375 8.736943 12.285330 0.000000 0.000000 0.000000 -3.507064 0.504477 -5.295694 -5.476641 0.284101 -3.136726 0.669319 -5.910422 18.198584 0.000000 0.000000 0.000000 5.399270 0.106094 -2.822389 -2.321185 1.093827 -1.444590 -5.642640 3.379362 -0.786827 8.417899 -5.037844 -7.410714 0.000000 0.000000 0.000000 -22.524271 -6.036747 -0.243530 -46.130434 -3.544829 -3.270527 -15.629510 -17.594929 2.877744 0.000000 0.000000 0.000000 20.432467 -1.133038 -1.640394 55.660341 2.734051 -3.720551 15.729366 21.494358 3.555551 0.000000 0.000000 0.000000 
0.001526 0.945413 0.008033 -0.279115 -1.239137 5.832524 4.220964 -0.259809 -2.908075 2.579402 -0.357615 1.345838 2.608119 8.800158 12.397916 0.000000 0.000000 0.000000 -3.481977 0.520026 -5.472595 -5.495429 0.262150 -3.389193 0.717969 -5.879466 18.330076 0.000000 0.000000 0.000000 5.444461 0.123547 -3.075267 -2.252528 1.061630 -1.385730 -5.707856 3.262028 -0.909848 8.260106 -4.981861 -7.145127 0.000000 0.000000 0.000000 -22.431501 -5.877524 -0.286049 -46.264354 -3.796105 -3.189174 -16.236282 -17.762810 3.000764 0.000000 0.000000 0.000000 20.196117 -1.093286 -1.643526 55.534929 2.936974 -3.591062 16.108629 21.332507 3.583393 0.000000 0.000000 0.000000 
0.001489 0.945529 0.008401 -0.272086 -1.377142 5.995680 4.149745 -0.260148 -2.899023 2.657737 -0.353578 1.103266 2.664354 8.897411 12.512167 0.000000 0.000000 0.000000 -3.466323 0.531011 -5.597686 -5.552059 0.255700 -3.494865 0.793767 -5.798299 18.393683 0.000000 0.000000 0.000000 5.448685 0.123319 -3.097638 -2.154680 1.016044 -1.700292 -5.706380 3.379828 -0.839101 8.276297 -5.049148 -6.874851 0.000000 0.000000 0.000000 -22.497945 -5.856320 -0.312615 -46.193211 -3.799357 -3.183137 -17.088317 -18.070232 3.184387 0.000000 0.000000 0.000000 20.211187 -1.313632 -1.757604 55.163694 3.081599 -3.511680 16.548661 21.163084 3.632162 0.000000 0.000000 0.000000 
0.001462 0.945587 0.008717 -0.317405 -1.455853 6.183105 4.115032 -0.268037 -3.018856 2.786757 -0.364144 1.019307 2.711532 8.976032 12.573169 0.000000 0.000000 0.000000 -3.357025 0.540083 -5.685289 -5.668624 0.244990 -3.697362 0.849079 -5.749891 18.489104 0.000000 0.000000 0.000000 5.524615 0.138024 -3.289028 -2.104335 0.992535 -1.785598 -5.673473 3.448382 -0.885944 8.182125 -5.074309 -6.411698 0.000000 0.000000 0.000000 -22.416199 -5.886429 -0.297091 -46.281805 -4.021137 -3.099938 -17.465455 -17.966953 3.220576 0.000000 0.000000 0.000000 20.084395 -1.324117 -1.750502 54.953450 3.145912 -3.462007 16.758828 21.091194 3.656679 0.000000 0.000000 0.000000 
0.001418 0.945476 0.008968 -0.342954 -1.529731 6.370750 4.101624 -0.275948 -3.138334 2.845835 -0.365826 0.927104 2.761520 9.049041 12.585150 0.000000 0.000000 0.000000 -3.378396 0.552066 -5.828199 -5.590514 0.228933 -3.805709 0.880855 -5.711750 18.494823 0.000000 0.000000 0.000000 5.579971 0.157738 -3.536877 -2.069245 0.975928 -1.819526 -5.636712 3.534128 -0.978339 8.147515 -5.071084 -6.284732 0.000000 0.000000 0.000000 -22.173136 -5.813824 -0.326796 -46.561893 -3.999172 -3.124767 -17.756899 -18.047378 3.276749 0.000000 0.000000 0.000000 20.094608 -1.377435 -1.774872 54.795809 3.264772 -3.391066 16.639735 20.682471 3.555172 0.000000 0.000000 0.000000 
